<?xml version="1.0" encoding="UTF-8" standalone="no"?><!DOCTYPE svg PUBLIC "-//W3C//DTD SVG 1.1//EN" "http://www.w3.org/Graphics/SVG/1.1/DTD/svg11.dtd"><svg width="100%" height="100%" viewBox="0 0 1182 1182" version="1.1" xmlns="http://www.w3.org/2000/svg" xmlns:xlink="http://www.w3.org/1999/xlink" xml:space="preserve" xmlns:serif="http://www.serif.com/" style="fill-rule:evenodd;clip-rule:evenodd;stroke-linejoin:round;stroke-miterlimit:2;"><path d="M1112.23,153.502l-994.12,0l198.824,910.779c0,-0 99.94,91.078 298.236,91.078c198.297,-0 298.236,-91.078 298.236,-91.078l198.824,-910.779Z" style="fill:url(#_Linear1);"/><ellipse cx="615.17" cy="153.502" rx="497.06" ry="127.759" style="fill:url(#_Linear2);"/><g><path d="M922.154,720.076c3.575,19.147 0,36.722 -10.736,52.729c-1.726,3.283 -4.044,6.632 -6.959,10.054c-0.262,0.271 -0.461,0.546 -0.596,0.821l-88.278,144.441c-2.255,3.557 -5.567,7.111 -9.941,10.673c-8.88,7.111 -18.559,10.599 -29.033,10.463l-74.356,-1.03l-0.994,59.5l-72.968,-130.899l73.366,-140.129l-1.591,68.318l102.796,0.821l-80.329,-144.236l128.838,-76.734l65.409,117.974c2.521,5.605 4.315,11.354 5.372,17.234Zm-508.393,-173.78l64.022,-119c3.312,-4.924 7.157,-9.438 11.532,-13.541c14.048,-12.996 30.487,-18.876 49.308,-17.645l11.532,2.052l166.813,1.846l14.121,3.283c10.47,4.103 18.291,10.804 23.457,20.107l37.776,66.27l49.905,-29.955l-70.781,132.131l-154.288,7.796l57.659,-33.853l-52.092,-91.301l-78.535,145.877l-130.429,-74.067Zm-103.189,62.782l146.533,0l81.12,135.414l-56.665,-35.495l-51.296,91.507l160.848,-0l0.199,153.673l-124.861,0c-7.289,0.411 -15.377,-1.026 -24.257,-4.308c-17.627,-6.295 -30.487,-18.195 -38.572,-35.7c-1.853,-3.283 -3.447,-7.046 -4.771,-11.285l-78.337,-152.032c-1.857,-3.833 -3.181,-8.552 -3.976,-14.157c-1.591,-11.354 0.33,-21.678 5.765,-30.981l37.976,-66.069l-49.706,-30.567Z" style="fill:#fff;stroke:#1b00ff;stroke-width:4.04px;"/></g><defs><linearGradient id="_Linear1" x1="0" y1="0" x2="1" y2="0" gradientUnits="userSpaceOnUse" gradientTransform="matrix(397.648,3.28751e-12,-3.58833e-12,364.311,416.346,517.814)"><stop offset="0" style="stop-color:#000569;stop-opacity:1"/><stop offset="1" style="stop-color:#6d71ff;stop-opacity:1"/></linearGradient><linearGradient id="_Linear2" x1="0" y1="0" x2="1" y2="0" gradientUnits="userSpaceOnUse" gradientTransform="matrix(-198.824,2.23076e-14,-2.43489e-14,-182.156,714.582,81.6708)"><stop offset="0" style="stop-color:#0013ad;stop-opacity:1"/><stop offset="1" style="stop-color:#2695ff;stop-opacity:1"/></linearGradient></defs></svg>